<svg width="1920" height="274" fill="none" xmlns="http://www.w3.org/2000/svg"><g clip-path="url(#clip0_73_699)" fill="#E0DFD4"><path d="M80.776 14.724L0 0v250h478l-113.313-20.287C354.451 227.881 347 218.977 347 208.579a13.828 13.828 0 00-10.688-13.467l-196.67-45.867c-17.653-4.117-30.142-19.854-30.142-37.981V49.157c0-16.91-12.088-31.4-28.724-34.433z"/><path d="M964.5 250.5c-497.062 0-572-16-572-16l12 27.5L1541 274v-42s-243 18.5-576.5 18.5z"/><path d="M1839.22 14.724L1920 0v250h-478l113.31-20.287c10.24-1.832 17.69-10.736 17.69-21.134a13.83 13.83 0 0110.69-13.467l196.67-45.867c17.65-4.117 30.14-19.854 30.14-37.981V49.157c0-16.91 12.09-31.4 28.72-34.433zM0 250h1920v24H0z"/></g><defs><clipPath id="clip0_73_699"><path fill="#fff" d="M0 0h1920v274H0z"/></clipPath></defs></svg>