<svg width="814" height="674" fill="none" xmlns="http://www.w3.org/2000/svg"><g clip-path="url(#clip0_8_683)"><path opacity=".1" d="M487.367 596.367c-165.569 165.569-434.009 165.569-599.578 0-165.569-165.569-165.569-434.009 0-599.578 165.569-165.569 434.009-165.569 599.578 0 165.569 165.569 165.569 434.009 0 599.578zM-111.611-2.611c-165.238 165.238-165.238 433.141 0 598.379 165.237 165.238 433.141 165.238 598.379 0 165.237-165.238 165.237-433.141 0-598.38-165.238-165.237-433.142-165.237-598.379 0z" fill="#34393A"/><path d="M720.927 608.31c-170.968 296.124-549.621 397.58-845.746 226.617-296.125-170.968-397.584-549.621-226.617-845.746 170.968-296.125 549.621-397.584 845.746-226.617C790.434-66.468 891.894 312.185 720.927 608.31zM-243.127 51.713c-136.432 236.308-55.467 538.473 180.84 674.905 236.308 136.432 538.473 55.467 674.905-180.84C749.05 309.47 668.085 7.305 431.778-129.127 195.47-265.559-106.695-184.594-243.127 51.713z" fill="#D5D3C8"/></g><g clip-path="url(#clip1_8_683)"><path d="M68.861 635.913a3.028 3.028 0 00-3.028 3.044 3.028 3.028 0 106.056 0 3.028 3.028 0 00-3.028-3.044zm0-19.484a3.028 3.028 0 00-3.028 3.043 3.028 3.028 0 106.056 0 3.028 3.028 0 00-3.028-3.043zm0-19.485a3.028 3.028 0 00-3.028 3.044 3.028 3.028 0 106.056 0 3.028 3.028 0 00-3.028-3.044zm0-19.484a3.028 3.028 0 00-3.028 3.043 3.028 3.028 0 106.056 0 3.028 3.028 0 00-3.028-3.043zm0-19.484a3.028 3.028 0 00-3.028 3.043 3.028 3.028 0 106.056 0 3.028 3.028 0 00-3.028-3.043zm0-19.485a3.028 3.028 0 00-3.028 3.043 3.028 3.028 0 106.056 0 3.028 3.028 0 00-3.028-3.043zm0-19.485a3.028 3.028 0 00-3.028 3.044 3.028 3.028 0 106.056 0 3.028 3.028 0 00-3.028-3.044zm0-19.484a3.028 3.028 0 00-3.028 3.043 3.028 3.028 0 106.056 0 3.028 3.028 0 00-3.028-3.043zm18.302 136.391a3.028 3.028 0 00-3.029 3.044 3.028 3.028 0 106.057 0 3.028 3.028 0 00-3.028-3.044zm0-19.484a3.028 3.028 0 00-3.029 3.043 3.028 3.028 0 106.057 0 3.028 3.028 0 00-3.028-3.043zm0-19.485a3.028 3.028 0 00-3.029 3.044 3.028 3.028 0 106.057 0 3.028 3.028 0 00-3.028-3.044zm0-19.484a3.028 3.028 0 00-3.029 3.043 3.028 3.028 0 106.057 0 3.028 3.028 0 00-3.028-3.043zm0-19.484a3.028 3.028 0 00-3.029 3.043 3.028 3.028 0 106.057 0 3.028 3.028 0 00-3.028-3.043zm0-19.485a3.028 3.028 0 00-3.029 3.043 3.028 3.028 0 106.057 0 3.028 3.028 0 00-3.028-3.043zm0-19.485a3.028 3.028 0 00-3.029 3.044 3.028 3.028 0 106.057 0 3.028 3.028 0 00-3.028-3.044zm0-19.484a3.028 3.028 0 00-3.029 3.043 3.028 3.028 0 106.057 0 3.028 3.028 0 00-3.028-3.043zm18.301 136.391a3.027 3.027 0 00-3.028 3.044 3.027 3.027 0 106.056 0 3.027 3.027 0 00-3.028-3.044zm0-19.484a3.027 3.027 0 00-3.028 3.043 3.028 3.028 0 106.056 0 3.027 3.027 0 00-3.028-3.043zm0-19.485a3.028 3.028 0 00-3.028 3.044 3.027 3.027 0 106.056 0 3.028 3.028 0 00-3.028-3.044zm0-19.484a3.027 3.027 0 00-3.028 3.043 3.027 3.027 0 106.056 0 3.027 3.027 0 00-3.028-3.043zm0-19.484a3.027 3.027 0 00-3.028 3.043 3.027 3.027 0 106.056 0 3.027 3.027 0 00-3.028-3.043zm0-19.485a3.027 3.027 0 00-3.028 3.043 3.028 3.028 0 106.056 0 3.027 3.027 0 00-3.028-3.043zm0-19.485a3.028 3.028 0 00-3.028 3.044 3.027 3.027 0 106.056 0 3.028 3.028 0 00-3.028-3.044zm0-19.484a3.027 3.027 0 00-3.028 3.043 3.027 3.027 0 106.056 0 3.027 3.027 0 00-3.028-3.043zm18.302 136.391a3.028 3.028 0 00-3.029 3.044 3.028 3.028 0 106.057 0 3.028 3.028 0 00-3.028-3.044zm0-19.484a3.028 3.028 0 00-3.029 3.043 3.029 3.029 0 106.057 0 3.028 3.028 0 00-3.028-3.043zm0-19.485a3.029 3.029 0 00-3.029 3.044 3.028 3.028 0 106.057 0 3.029 3.029 0 00-3.028-3.044zm0-19.484a3.028 3.028 0 00-3.029 3.043 3.028 3.028 0 106.057 0 3.028 3.028 0 00-3.028-3.043zm0-19.484a3.028 3.028 0 00-3.029 3.043 3.028 3.028 0 106.057 0 3.028 3.028 0 00-3.028-3.043zm0-19.485a3.028 3.028 0 00-3.029 3.043 3.029 3.029 0 106.057 0 3.028 3.028 0 00-3.028-3.043zm0-19.485a3.029 3.029 0 00-3.029 3.044 3.028 3.028 0 106.057 0 3.029 3.029 0 00-3.028-3.044zm0-19.484a3.028 3.028 0 00-3.029 3.043 3.028 3.028 0 106.057 0 3.028 3.028 0 00-3.028-3.043zm18.301 136.391a3.027 3.027 0 00-3.028 3.044 3.027 3.027 0 106.056 0 3.027 3.027 0 00-3.028-3.044zm0-19.484a3.027 3.027 0 00-3.028 3.043 3.028 3.028 0 106.056 0 3.027 3.027 0 00-3.028-3.043zm0-19.485a3.028 3.028 0 00-3.028 3.044 3.027 3.027 0 106.056 0 3.028 3.028 0 00-3.028-3.044zm0-19.484a3.027 3.027 0 00-3.028 3.043 3.027 3.027 0 106.056 0 3.027 3.027 0 00-3.028-3.043zm0-19.484a3.027 3.027 0 00-3.028 3.043 3.027 3.027 0 106.056 0 3.027 3.027 0 00-3.028-3.043zm0-19.485a3.027 3.027 0 00-3.028 3.043 3.028 3.028 0 106.056 0 3.027 3.027 0 00-3.028-3.043zm0-19.485a3.028 3.028 0 00-3.028 3.044 3.027 3.027 0 106.056 0 3.028 3.028 0 00-3.028-3.044zm0-19.484a3.027 3.027 0 00-3.028 3.043 3.027 3.027 0 106.056 0 3.027 3.027 0 00-3.028-3.043zm18.302 136.391a3.028 3.028 0 00-3.029 3.044 3.028 3.028 0 106.057 0 3.028 3.028 0 00-3.028-3.044zm0-19.484a3.028 3.028 0 00-3.029 3.043 3.029 3.029 0 106.057 0 3.028 3.028 0 00-3.028-3.043zm0-19.485a3.029 3.029 0 00-3.029 3.044 3.028 3.028 0 106.057 0 3.029 3.029 0 00-3.028-3.044zm0-19.484a3.028 3.028 0 00-3.029 3.043 3.028 3.028 0 106.057 0 3.028 3.028 0 00-3.028-3.043zm0-19.484a3.028 3.028 0 00-3.029 3.043 3.028 3.028 0 106.057 0 3.028 3.028 0 00-3.028-3.043zm0-19.485a3.028 3.028 0 00-3.029 3.043 3.029 3.029 0 106.057 0 3.028 3.028 0 00-3.028-3.043zm0-19.485a3.029 3.029 0 00-3.029 3.044 3.028 3.028 0 106.057 0 3.029 3.029 0 00-3.028-3.044zm0-19.484a3.028 3.028 0 00-3.029 3.043 3.028 3.028 0 106.057 0 3.028 3.028 0 00-3.028-3.043zm18.301 136.391a3.027 3.027 0 00-3.028 3.044 3.027 3.027 0 106.056 0 3.027 3.027 0 00-3.028-3.044zm0-19.484a3.027 3.027 0 00-3.028 3.043 3.028 3.028 0 106.056 0 3.027 3.027 0 00-3.028-3.043zm0-19.485a3.028 3.028 0 00-3.028 3.044 3.027 3.027 0 106.056 0 3.028 3.028 0 00-3.028-3.044zm0-19.484a3.027 3.027 0 00-3.028 3.043 3.027 3.027 0 106.056 0 3.027 3.027 0 00-3.028-3.043zm0-19.484a3.027 3.027 0 00-3.028 3.043 3.027 3.027 0 106.056 0 3.027 3.027 0 00-3.028-3.043zm0-19.485a3.027 3.027 0 00-3.028 3.043 3.028 3.028 0 106.056 0 3.027 3.027 0 00-3.028-3.043zm0-19.485a3.028 3.028 0 00-3.028 3.044 3.027 3.027 0 106.056 0 3.028 3.028 0 00-3.028-3.044zm0-19.484a3.027 3.027 0 00-3.028 3.043 3.027 3.027 0 106.056 0 3.027 3.027 0 00-3.028-3.043zm18.302 136.391a3.028 3.028 0 00-3.029 3.044 3.028 3.028 0 106.057 0 3.028 3.028 0 00-3.028-3.044zm0-19.484a3.028 3.028 0 00-3.029 3.043 3.029 3.029 0 106.057 0 3.028 3.028 0 00-3.028-3.043zm0-19.485a3.029 3.029 0 00-3.029 3.044 3.028 3.028 0 106.057 0 3.029 3.029 0 00-3.028-3.044zm0-19.484a3.028 3.028 0 00-3.029 3.043 3.028 3.028 0 106.057 0 3.028 3.028 0 00-3.028-3.043zm0-19.484a3.028 3.028 0 00-3.029 3.043 3.028 3.028 0 106.057 0 3.028 3.028 0 00-3.028-3.043zm0-19.485a3.028 3.028 0 00-3.029 3.043 3.029 3.029 0 106.057 0 3.028 3.028 0 00-3.028-3.043zm0-19.485a3.029 3.029 0 00-3.029 3.044 3.028 3.028 0 106.057 0 3.029 3.029 0 00-3.028-3.044zm0-19.484a3.028 3.028 0 00-3.029 3.043 3.028 3.028 0 106.057 0 3.028 3.028 0 00-3.028-3.043z" fill="#353B3A"/><path d="M136.076 568.363V443.881c0-2.977-2.402-5.392-5.365-5.392H6.847c-2.963 0-5.366 2.415-5.366 5.392v124.482c0 2.977 2.403 5.392 5.366 5.392H130.71c2.963 0 5.365-2.415 5.365-5.392z" stroke="#4E5552" stroke-width=".89" stroke-miterlimit="10"/></g><defs><clipPath id="clip0_8_683"><path fill="#fff" transform="translate(374)" d="M0 0h440v674H0z"/></clipPath><clipPath id="clip1_8_683"><path fill="#fff" transform="matrix(0 -1 -1 0 200 642)" d="M0 0h205v200H0z"/></clipPath></defs></svg>