<svg width="170" height="45" fill="none" xmlns="http://www.w3.org/2000/svg"><path d="M6.366 26H.614L7.095 6.364h7.287L20.864 26H15.11l-4.296-14.229h-.153L6.366 26zm-1.073-7.747h10.815v3.988H5.293v-3.988zm27.811-7.594V6.364h17.067v4.295h-5.906V26H39.01V10.66h-5.907zm31.902 0V6.364h17.066v4.295h-5.906V26h-5.254V10.66h-5.906zm37.769-4.295V26h-5.331V6.364h5.331zM118.666 26V6.364h5.331v15.34h7.939V26h-13.27zm33.891 0h-5.753l6.481-19.636h7.287L167.054 26h-5.753l-4.295-14.229h-.154L152.557 26zm-1.074-7.747h10.815v3.988h-10.815v-3.988z" fill="#fff"/><path d="M6.366 26H.614L7.095 6.364h7.287L20.864 26H15.11l-4.296-14.229h-.153L6.366 26zm-1.073-7.747h10.815v3.988H5.293v-3.988zm27.811-7.594V6.364h17.067v4.295h-5.906V26H39.01V10.66h-5.907zm31.902 0V6.364h17.066v4.295h-5.906V26h-5.254V10.66h-5.906zm37.769-4.295V26h-5.331V6.364h5.331zM118.666 26V6.364h5.331v15.34h7.939V26h-13.27zm33.891 0h-5.753l6.481-19.636h7.287L167.054 26h-5.753l-4.295-14.229h-.154L152.557 26zm-1.074-7.747h10.815v3.988h-10.815v-3.988z" fill="url(#paint0_linear_73_739)" fill-opacity=".3"/><path d="M1.477 42v-9.455h.296v4.174h.037c.123-.394.301-.734.535-1.02.234-.29.51-.511.827-.665a2.31 2.31 0 011.038-.236c.554 0 1.036.162 1.445.485.41.323.727.762.951 1.316.225.554.337 1.179.337 1.874 0 .699-.112 1.325-.337 1.879-.221.554-.537.992-.946 1.316-.406.32-.89.48-1.45.48a2.32 2.32 0 01-1.043-.236 2.451 2.451 0 01-.817-.664 3.26 3.26 0 01-.54-1.02h-.037V42h-.296zm.296-3.527c0 .64.098 1.216.295 1.727.197.507.477.91.84 1.21.367.295.8.442 1.302.442s.934-.147 1.297-.443c.367-.298.648-.702.845-1.21.197-.51.296-1.086.296-1.726 0-.64-.1-1.214-.3-1.722-.197-.51-.479-.914-.845-1.21a1.972 1.972 0 00-1.293-.447c-.498 0-.93.149-1.297.447-.363.296-.645.7-.845 1.21-.197.508-.295 1.082-.295 1.722zm15.862 1.2V34.91h.295V42h-.295v-1.126h-.037c-.166.369-.44.664-.822.886a2.529 2.529 0 01-1.302.332c-.474 0-.892-.103-1.255-.309a2.232 2.232 0 01-.854-.854 2.499 2.499 0 01-.31-1.256V34.91h.296v4.764c0 .628.197 1.139.59 1.533.394.394.905.59 1.533.59.419 0 .79-.09 1.113-.271a1.98 1.98 0 00.766-.753c.188-.32.282-.686.282-1.099zm11.086-3.268l-.295.074a2.154 2.154 0 00-.402-.767 1.57 1.57 0 00-.623-.461 2.182 2.182 0 00-.859-.157c-.566 0-1.025.144-1.376.434-.35.286-.526.665-.526 1.135 0 .373.119.685.355.938.24.252.602.438 1.085.558l1.108.277c.52.13.914.348 1.182.656.271.307.406.68.406 1.117 0 .384-.101.723-.304 1.015-.2.293-.477.52-.831.684-.354.16-.763.24-1.228.24-.631 0-1.147-.154-1.547-.462-.4-.308-.66-.745-.78-1.311l.296-.074c.104.502.327.886.669 1.154.345.265.799.397 1.362.397.615 0 1.114-.15 1.495-.452.382-.302.573-.699.573-1.191 0-.366-.114-.676-.342-.928-.227-.252-.569-.436-1.024-.55l-1.108-.276c-.545-.136-.96-.358-1.242-.665a1.613 1.613 0 01-.42-1.127c0-.372.092-.697.277-.974.187-.28.446-.498.775-.655a2.653 2.653 0 011.145-.236c.548 0 1.005.136 1.371.407.366.267.636.667.808 1.2zM34.951 42v-7.09h.296V42h-.295zm.149-8.383c-.08 0-.15-.03-.208-.088a.284.284 0 01-.088-.208c0-.08.03-.15.088-.208a.284.284 0 01.208-.087c.08 0 .149.029.207.087a.284.284 0 01.088.208c0 .08-.03.15-.088.208a.284.284 0 01-.207.087zm7.022 3.619V42h-.295v-7.09h.295v1.126h.037a1.94 1.94 0 01.817-.887 2.554 2.554 0 011.307-.332c.474 0 .892.103 1.255.31.364.205.648.49.855.853.206.363.309.782.309 1.256V42h-.296v-4.764c0-.628-.197-1.139-.59-1.533-.394-.394-.905-.59-1.533-.59-.419 0-.791.09-1.117.272a2.021 2.021 0 00-.767.752c-.184.32-.277.686-.277 1.099zm13.783 4.912c-.619 0-1.16-.162-1.625-.485a3.205 3.205 0 01-1.076-1.316c-.255-.554-.383-1.178-.383-1.874 0-.695.128-1.32.383-1.874.258-.554.61-.993 1.053-1.316a2.484 2.484 0 011.5-.485c.412 0 .794.088 1.145.263.354.176.661.419.923.73.262.31.465.67.61 1.076.147.403.221.834.221 1.292v.296h-5.688v-.296h5.393c0-.57-.117-1.085-.351-1.546a2.915 2.915 0 00-.942-1.108 2.245 2.245 0 00-1.311-.411c-.486 0-.926.144-1.32.434-.394.289-.71.683-.947 1.181-.237.5-.361 1.062-.374 1.69v.037c0 .619.108 1.188.323 1.708.219.517.536.931.951 1.242.416.31.92.466 1.515.466.437 0 .803-.077 1.098-.23.299-.154.537-.331.716-.531.181-.2.315-.371.401-.513l.24.166a3.337 3.337 0 01-.47.596c-.21.218-.477.408-.804.568-.326.16-.72.24-1.181.24zm13.12-5.743l-.295.074a2.153 2.153 0 00-.401-.767 1.568 1.568 0 00-.624-.461 2.182 2.182 0 00-.858-.157c-.567 0-1.025.144-1.376.434-.35.286-.526.665-.526 1.135 0 .373.118.685.355.938.24.252.602.438 1.085.558l1.108.277c.52.13.914.348 1.182.656.27.307.406.68.406 1.117 0 .384-.102.723-.305 1.015-.2.293-.477.52-.83.684-.355.16-.764.24-1.229.24-.63 0-1.146-.154-1.546-.462-.4-.308-.66-.745-.78-1.311l.295-.074c.105.502.328.886.67 1.154.344.265.798.397 1.361.397.616 0 1.115-.15 1.496-.452.382-.302.573-.699.573-1.191 0-.366-.114-.676-.342-.928-.228-.252-.57-.436-1.025-.55l-1.108-.276c-.545-.136-.959-.358-1.242-.665a1.613 1.613 0 01-.42-1.127c0-.372.093-.697.277-.974.188-.28.446-.498.776-.655a2.652 2.652 0 011.145-.236c.547 0 1.005.136 1.37.407.367.267.636.667.809 1.2zm10.442 0l-.296.074a2.154 2.154 0 00-.401-.767 1.57 1.57 0 00-.624-.461 2.182 2.182 0 00-.858-.157c-.566 0-1.025.144-1.376.434-.35.286-.526.665-.526 1.135 0 .373.118.685.355.938.24.252.602.438 1.085.558l1.108.277c.52.13.914.348 1.182.656.27.307.406.68.406 1.117 0 .384-.101.723-.305 1.015-.2.293-.477.52-.83.684-.354.16-.764.24-1.228.24-.631 0-1.147-.154-1.547-.462-.4-.308-.66-.745-.78-1.311l.295-.074c.105.502.328.886.67 1.154.344.265.798.397 1.362.397.615 0 1.114-.15 1.495-.452.382-.302.573-.699.573-1.191 0-.366-.114-.676-.342-.928-.228-.252-.57-.436-1.025-.55l-1.108-.276c-.544-.136-.958-.358-1.242-.665a1.613 1.613 0 01-.42-1.127c0-.372.093-.697.277-.974.188-.28.447-.498.776-.655a2.653 2.653 0 011.145-.236c.548 0 1.005.136 1.37.407.367.267.636.667.809 1.2zm15.653 5.743c-.388 0-.747-.08-1.076-.24a1.952 1.952 0 01-.79-.702c-.196-.308-.295-.683-.295-1.127 0-.24.039-.464.116-.673.076-.213.212-.405.406-.578.194-.172.465-.32.812-.443.351-.123.799-.217 1.344-.281.326-.037.634-.08.923-.13.29-.049.525-.123.706-.221.182-.099.273-.24.273-.425v-.425c0-.544-.183-.981-.55-1.31-.366-.333-.854-.5-1.463-.5-.499 0-.934.111-1.306.333a1.752 1.752 0 00-.78.923l-.278-.11c.111-.296.282-.551.513-.767.23-.215.505-.381.822-.498a2.95 2.95 0 011.029-.176c.36 0 .682.054.965.162.286.105.53.252.73.443.2.188.352.41.456.665.105.255.157.534.157.835V42h-.295v-1.44h-.037c-.148.32-.34.6-.577.84a2.541 2.541 0 01-.813.554c-.304.13-.635.194-.992.194zm0-.296c.449 0 .857-.12 1.223-.36.366-.243.657-.58.873-1.01.215-.435.323-.938.323-1.51V37.9a1.37 1.37 0 01-.314.17c-.12.05-.257.094-.411.134a5.48 5.48 0 01-.494.097c-.178.028-.37.054-.572.079-.635.074-1.133.186-1.496.337-.363.15-.62.34-.771.567a1.406 1.406 0 00-.226.795c0 .535.178.964.535 1.288.36.323.803.484 1.33.484zm11.598.296c-.56 0-1.044-.16-1.454-.48-.409-.324-.725-.762-.946-1.316-.222-.554-.333-1.18-.333-1.879 0-.695.113-1.32.337-1.874.225-.554.542-.993.951-1.316.41-.323.891-.485 1.445-.485.376 0 .722.079 1.039.236.317.154.593.375.826.665.234.286.413.626.536 1.02h.037v-4.174h.295V42h-.295v-1.773h-.037a3.25 3.25 0 01-.54 1.02 2.44 2.44 0 01-.822.665 2.29 2.29 0 01-1.039.236zm0-.296c.502 0 .934-.147 1.298-.443.366-.298.647-.702.844-1.21.197-.51.296-1.086.296-1.726 0-.64-.1-1.214-.3-1.722-.197-.51-.479-.914-.845-1.21a1.972 1.972 0 00-1.293-.447c-.498 0-.931.149-1.297.447-.363.296-.645.7-.845 1.21-.197.508-.295 1.082-.295 1.722 0 .64.098 1.216.295 1.727.197.507.477.91.841 1.21.366.295.8.442 1.301.442zm14.367-6.943L118.555 42h-.406l-2.53-7.09h.314l2.4 6.72h.037l2.401-6.72h.314zM127.069 42v-7.09h.295V42h-.295zm.147-8.383a.282.282 0 01-.207-.088.282.282 0 01-.088-.208c0-.08.029-.15.088-.208a.281.281 0 01.207-.087c.08 0 .15.029.208.087a.282.282 0 01.088.208c0 .08-.029.15-.088.208a.284.284 0 01-.208.087zm10.975 2.788l-.296.074a2.152 2.152 0 00-.401-.767 1.57 1.57 0 00-.624-.461 2.179 2.179 0 00-.858-.157c-.567 0-1.025.144-1.376.434-.351.286-.526.665-.526 1.135 0 .373.118.685.355.938.24.252.602.438 1.085.558l1.108.277c.52.13.914.348 1.182.656.271.307.406.68.406 1.117 0 .384-.101.723-.305 1.015-.2.293-.477.52-.831.684-.353.16-.763.24-1.228.24-.63 0-1.146-.154-1.546-.462-.4-.308-.66-.745-.78-1.311l.295-.074c.105.502.328.886.67 1.154.344.265.798.397 1.361.397.616 0 1.115-.15 1.496-.452.382-.302.573-.699.573-1.191 0-.366-.114-.676-.342-.928-.228-.252-.569-.436-1.025-.55l-1.108-.276c-.545-.136-.958-.358-1.242-.665a1.613 1.613 0 01-.42-1.127c0-.372.093-.697.277-.974.188-.28.447-.498.776-.655a2.651 2.651 0 011.145-.236c.548 0 1.005.136 1.371.407.366.267.635.667.808 1.2zm8.705 5.743c-.557 0-1.057-.16-1.5-.48-.444-.324-.794-.762-1.053-1.316-.255-.557-.383-1.183-.383-1.879 0-.699.128-1.325.383-1.879.259-.554.609-.99 1.053-1.311a2.483 2.483 0 011.5-.485c.557 0 1.056.162 1.496.485.443.323.794.762 1.052 1.316.259.554.388 1.179.388 1.874 0 .696-.129 1.322-.388 1.879-.255.554-.604.992-1.048 1.316-.443.32-.943.48-1.5.48zm0-.296a2.2 2.2 0 001.348-.443c.4-.295.716-.698.946-1.21.231-.51.347-1.086.347-1.726 0-.64-.117-1.214-.351-1.722-.231-.51-.545-.914-.942-1.21a2.185 2.185 0 00-1.348-.447 2.2 2.2 0 00-1.348.447c-.397.296-.712.7-.946 1.21-.231.508-.347 1.082-.347 1.722 0 .64.116 1.216.347 1.727.23.51.544.914.941 1.21.4.295.851.442 1.353.442zm9.047.148v-7.09h.295v1.126h.037c.167-.37.439-.665.817-.887a2.558 2.558 0 011.307-.332h.148v.295h-.148c-.419 0-.791.091-1.117.273a2.026 2.026 0 00-.767.752c-.184.32-.277.686-.277 1.099V42h-.295zm12.505-5.595l-.296.074a2.152 2.152 0 00-.401-.767 1.57 1.57 0 00-.624-.461 2.179 2.179 0 00-.858-.157c-.567 0-1.025.144-1.376.434-.351.286-.526.665-.526 1.135 0 .373.118.685.355.938.24.252.602.438 1.085.558l1.108.277c.52.13.914.348 1.182.656.271.307.406.68.406 1.117 0 .384-.101.723-.305 1.015-.2.293-.477.52-.831.684-.353.16-.763.24-1.228.24-.63 0-1.146-.154-1.546-.462-.4-.308-.66-.745-.78-1.311l.295-.074c.105.502.328.886.67 1.154.344.265.798.397 1.361.397.616 0 1.115-.15 1.496-.452.382-.302.573-.699.573-1.191 0-.366-.114-.676-.342-.928-.228-.252-.569-.436-1.025-.55l-1.108-.276c-.545-.136-.958-.358-1.242-.665a1.613 1.613 0 01-.42-1.127c0-.372.093-.697.277-.974.188-.28.447-.498.776-.655a2.651 2.651 0 011.145-.236c.548 0 1.005.136 1.371.407.366.267.635.667.808 1.2z" fill="#fff"/><defs><linearGradient id="paint0_linear_73_739" x1="6.16" y1="2.845" x2="165.881" y2="27.667" gradientUnits="userSpaceOnUse"><stop stop-color="#283933"/><stop offset="1" stop-opacity="0"/></linearGradient></defs></svg>