<svg width="1920" height="282" fill="none" xmlns="http://www.w3.org/2000/svg"><path d="M-55 5.802H74.805c33.481 0 60.009 8.382 79.583 25.145 19.574 16.762 29.36 41.133 29.36 73.111s-9.786 56.348-29.36 73.111c-19.574 16.762-46.102 25.144-79.583 25.144H36.559v73.885H-55V5.802zM56.261 133.844c23.437 0 35.156-9.929 35.156-29.786 0-19.858-11.719-29.786-35.156-29.786H36.56v59.572h19.7zM276.696 5.802h86.536l108.171 270.396h-93.877l-17.384-47.194h-80.356l-17.384 47.194h-93.877L276.696 5.802zm63.357 155.893l-20.089-62.28-20.089 62.28h40.178zM506.347 5.802h129.805c33.482 0 60.009 8.382 79.583 25.145 19.574 16.762 29.361 41.133 29.361 73.111 0 20.115-3.992 37.264-11.976 51.448-7.984 13.926-19.317 24.886-33.997 32.881l42.496 87.811h-92.332l-35.542-73.885h-17.384v73.885h-90.014V5.802zm110.489 128.042c23.437 0 35.156-9.929 35.156-29.786 0-19.858-11.719-29.786-35.156-29.786h-20.475v59.572h20.475zm205.066-51.062H752.75V5.802h229.863v76.98H913.46v193.416h-91.558V82.782zm189.578-76.98h80.74l80.36 125.721V5.803h87.69v270.395h-80.74l-80.35-126.107v126.107h-87.7V5.802zm291.24 0h200.11v76.98h-108.55v23.597h76.88v69.242h-76.88v23.597h108.55v76.98h-200.11V5.802zm235.02 0h129.81c33.48 0 60.01 8.382 79.58 25.145 19.57 16.762 29.36 41.133 29.36 73.111 0 20.115-3.99 37.264-11.98 51.448-7.98 13.926-19.31 24.886-33.99 32.881l42.49 87.811h-92.33l-35.54-73.885h-17.38v73.885h-90.02V5.802zm110.49 128.042c23.44 0 35.16-9.929 35.16-29.786 0-19.858-11.72-29.786-35.16-29.786h-20.47v59.572h20.47zM1901.26 282c-17.77 0-35.67-1.805-53.7-5.416-18.03-3.61-32.71-8.51-44.04-14.699v-79.687c14.42 8.252 29.62 14.441 45.59 18.567 16.22 4.127 31.16 6.19 44.81 6.19 7.73 0 13.27-.774 16.61-2.321 3.35-1.548 5.03-3.997 5.03-7.35 0-4.642-2.58-8.51-7.73-11.605-5.15-3.353-16.1-8.768-32.84-16.247-24.72-10.831-42.75-22.823-54.08-35.975-11.08-13.41-16.62-29.657-16.62-48.74 0-16.506 4.51-31.076 13.53-43.713 9.27-12.894 22.14-22.952 38.63-30.173C1873.19 3.611 1892.25 0 1913.62 0c17.52 0 33.1 1.418 46.75 4.255 13.65 2.837 26.66 7.221 39.02 13.152v76.98c-23.18-12.894-46.1-19.342-68.77-19.342-18.28 0-27.43 3.998-27.43 11.992 0 3.868 2.06 7.092 6.18 9.67 4.38 2.58 12.11 6.061 23.18 10.445l14.3 5.803c18.28 7.736 32.32 15.473 42.11 23.21 9.78 7.478 16.74 16.118 20.86 25.917 4.12 9.542 6.18 21.663 6.18 36.362 0 26.047-9.53 46.549-28.59 61.507-19.06 14.699-47.77 22.049-86.15 22.049z" fill="#E8E7DF" fill-opacity=".02"/></svg>